<?xml version="1.0" encoding="utf-8"?>
<!-- Generator: Adobe Illustrator 23.0.4, SVG Export Plug-In . SVG Version: 6.00 Build 0)  -->
<svg version="1.1" id="Layer_2" xmlns="http://www.w3.org/2000/svg" xmlns:xlink="http://www.w3.org/1999/xlink" x="0px" y="0px"
	 viewBox="0 0 192 192" enable-background="new 0 0 192 192" xml:space="preserve">
<path fill="#455A65" d="M38.5,111.9L38.5,111.9c-8.8-8.8-8.8-23,0-31.8l58.7-58.7c8.8-8.8,23-8.8,31.8,0l0,0c8.8,8.8,8.8,23,0,31.8
	l-58.7,58.7C61.6,120.6,47.3,120.6,38.5,111.9z"/>
<path fill="#F7A94C" d="M62.9,170.5L62.9,170.5c-8.8-8.8-8.8-23,0-31.8L121.6,80c8.8-8.8,23-8.8,31.8,0l0,0c8.8,8.8,8.8,23,0,31.8
	l-58.7,58.7C85.9,179.3,71.7,179.3,62.9,170.5z"/>
<path fill="#E97534" d="M159.9,95.9L159.9,95.9c0,12.4-10.1,22.5-22.5,22.5h-83c-12.4,0-22.5-10.1-22.5-22.5v0
	c0-12.4,10.1-22.5,22.5-22.5h83C149.9,73.4,159.9,83.5,159.9,95.9z"/>
</svg>
