<?xml version="1.0" encoding="utf-8"?>
<!-- Generator: Adobe Illustrator 20.1.0, SVG Export Plug-In . SVG Version: 6.00 Build 0)  -->
<!DOCTYPE svg PUBLIC "-//W3C//DTD SVG 1.1//EN" "http://www.w3.org/Graphics/SVG/1.1/DTD/svg11.dtd">
<svg version="1.1" id="Layer_1" xmlns="http://www.w3.org/2000/svg" xmlns:xlink="http://www.w3.org/1999/xlink" x="0px" y="0px"
	 width="256px" height="184.9px" viewBox="0 0 256 184.9" style="enable-background:new 0 0 256 184.9;" xml:space="preserve">
<g>
	<g>
		<path style="fill:#989898;" d="M18.8,178.2c0-4.5-3.6-8.1-7.9-8.1c-4.7-0.1-8.6-3.9-8.6-8.7c0-2.3,0.9-4.5,2.6-6.1
			c1.6-1.6,3.8-2.5,6.1-2.5h0.5c2.3,0,4.5,0.9,6.1,2.5c1.6,1.6,2.6,3.8,2.6,6.1h-2.7c0-3.2-2.7-5.9-5.9-5.9H11
			c-3.2,0-5.9,2.6-5.9,5.9c0,3.3,2.7,5.9,6,5.9c2.8,0,5.4,1.1,7.4,3.2c2,2,3.1,4.8,3.1,7.7c0,2.5-0.8,4.9-2.3,6.8h-3.9
			C17.5,183.4,18.8,180.9,18.8,178.2z"/>
		<path style="fill:#989898;" d="M36.6,172.4v12.5h-2.7v-12.5l-7.8-19.5H29l6.2,15.5l6.2-15.5h2.9L36.6,172.4z"/>
		<path style="fill:#989898;" d="M70.6,184.9l-18.9-24.4v24.2H49v-32.2l18.9,24.4v-24.2h2.7V184.9z"/>
		<path style="fill:#989898;" d="M85.8,152.8l12.4,32.2h-2.9l-2.5-6.3H78.7l-2.4,6.3h-3L85.8,152.8z M91.8,175.8l-6-15.5l-6,15.5
			H91.8z"/>
		<path style="fill:#989898;" d="M119,163.2c0,5.7-4.6,10.3-10.2,10.3h-5.1v11.4h-2.7v-32h7.8C114.4,152.9,119,157.6,119,163.2z
			 M116.2,163.2c0-4.2-3.4-7.5-7.5-7.5h-5.1v15.1h5.1C112.9,170.8,116.2,167.4,116.2,163.2z"/>
		<path style="fill:#989898;" d="M140.1,178.2c0-4.5-3.6-8.1-7.9-8.1c-4.7-0.1-8.6-3.9-8.6-8.7c0-2.3,0.9-4.5,2.6-6.1
			c1.6-1.6,3.8-2.5,6.1-2.5h0.5c2.3,0,4.5,0.9,6.1,2.5c1.6,1.6,2.6,3.8,2.6,6.1h-2.7c0-3.2-2.7-5.9-5.9-5.9h-0.5
			c-3.2,0-5.9,2.6-5.9,5.9c0,3.3,2.7,5.9,6,5.9c2.8,0,5.4,1.1,7.4,3.2c2,2,3.1,4.8,3.1,7.7c0,2.5-0.8,4.9-2.3,6.8h-3.9
			C138.8,183.4,140.1,180.9,140.1,178.2z"/>
		<path style="fill:#989898;" d="M150.1,175.8h14.5v2.7h-14.5v3.7h14.5v2.7h-17.3v-32h17.3v2.7h-14.5V175.8z"/>
	</g>
	<polygon style="fill:#F15C4D;" points="0,20.1 0,60.2 34.7,40.1 69.5,60.2 69.5,20.1 34.7,0 	"/>
	<polygon style="fill:#609E9F;" points="0,60.2 0,100.3 34.7,120.4 69.5,100.3 69.5,60.2 34.7,80.2 	"/>
	<polygon style="fill:#7D3244;" points="0,60.2 34.7,80.2 69.5,60.2 34.7,40.1 	"/>
	<polygon style="fill:#F15C4D;" points="93.3,20.1 93.3,60.2 128,40.1 162.7,60.2 162.7,20.1 128,0 	"/>
	<polygon style="fill:#609E9F;" points="93.3,60.2 93.3,100.3 128,120.4 162.7,100.3 162.7,60.2 128,80.2 	"/>
	<polygon style="fill:#7D3244;" points="93.3,60.2 128,80.2 162.7,60.2 128,40.1 	"/>
	<polygon style="fill:#F15C4D;" points="221.3,0 186.5,20.1 186.5,60.2 221.3,40.1 256,60.2 256,20.1 	"/>
	<polygon style="fill:#609E9F;" points="186.5,60.2 186.5,100.3 221.3,120.4 256,100.3 256,60.2 221.3,80.2 	"/>
	<polygon style="fill:#7D3244;" points="186.5,60.2 221.3,80.2 256,60.2 221.3,40.1 	"/>
</g>
</svg>
