<?xml version="1.0" encoding="utf-8"?>
<!-- Generator: Adobe Illustrator 21.0.0, SVG Export Plug-In . SVG Version: 6.00 Build 0)  -->
<!DOCTYPE svg PUBLIC "-//W3C//DTD SVG 1.1//EN" "http://www.w3.org/Graphics/SVG/1.1/DTD/svg11.dtd">
<svg version="1.1" id="Layer_1" xmlns="http://www.w3.org/2000/svg" xmlns:xlink="http://www.w3.org/1999/xlink" x="0px" y="0px"
	 width="256px" height="120.4px" viewBox="0 0 256 120.4" style="enable-background:new 0 0 256 120.4;" xml:space="preserve">
<style type="text/css">
	.st0{fill:#F15C4D;}
	.st1{fill:#609E9F;}
	.st2{fill:#7D3244;}
</style>
<polygon class="st0" points="0,20.1 0,60.2 34.7,40.1 69.5,60.2 69.5,20.1 34.7,0 "/>
<polygon class="st1" points="0,60.2 0,100.3 34.7,120.4 69.5,100.3 69.5,60.2 34.7,80.2 "/>
<polygon class="st2" points="0,60.2 34.7,80.2 69.5,60.2 34.7,40.1 "/>
<polygon class="st0" points="93.3,20.1 93.3,60.2 128,40.1 162.7,60.2 162.7,20.1 128,0 "/>
<polygon class="st1" points="93.3,60.2 93.3,100.3 128,120.4 162.7,100.3 162.7,60.2 128,80.2 "/>
<polygon class="st2" points="93.3,60.2 128,80.2 162.7,60.2 128,40.1 "/>
<polygon class="st0" points="221.3,0 186.5,20.1 186.5,60.2 221.3,40.1 256,60.2 256,20.1 "/>
<polygon class="st1" points="186.5,60.2 186.5,100.3 221.3,120.4 256,100.3 256,60.2 221.3,80.2 "/>
<polygon class="st2" points="186.5,60.2 221.3,80.2 256,60.2 221.3,40.1 "/>
</svg>
